HIERARCHY
ROOT Hips
{
  OFFSET 48.8416 49.8665 -5.29685
  CHANNELS 6 Xposition Yposition Zposition Zrotation Xrotation Yrotation
  JOINT spine
  {
    OFFSET 0 6.24479 0.359107
    CHANNELS 3 Zrotation Xrotation Yrotation
    JOINT spine1
    {
      OFFSET 0 9.06941 0
      CHANNELS 3 Zrotation Xrotation Yrotation
      JOINT spine2
      {
        OFFSET 0 8.69014 0
        CHANNELS 3 Zrotation Xrotation Yrotation
        JOINT Neck
        {
          OFFSET 0 22.3112 1.06372
          CHANNELS 3 Zrotation Xrotation Yrotation
          JOINT Head
          {
            OFFSET 0 6.74081 0
            CHANNELS 3 Zrotation Xrotation Yrotation
            End Site
            {
              OFFSET 0 16.3165 -5.38097
            }
          }
        }
        JOINT RightShoulder
        {
          OFFSET -3.65916 9.38468 -0.509514
          CHANNELS 3 Zrotation Xrotation Yrotation
          JOINT RightArm
          {
            OFFSET 0 12.3089 0
            CHANNELS 3 Zrotation Xrotation Yrotation
            JOINT RightArmRoll
            {
              OFFSET 0 6.21375 0
              CHANNELS 3 Zrotation Xrotation Yrotation
              JOINT RightForeArm
              {
                OFFSET 0 18.0985 0
                CHANNELS 3 Zrotation Xrotation Yrotation
                JOINT RightForeArmRoll
                {
                  OFFSET 0 6.97279 0
                  CHANNELS 3 Zrotation Xrotation Yrotation
                  JOINT RightHand
                  {
                    OFFSET 0 13.9929 0
                    CHANNELS 3 Zrotation Xrotation Yrotation
                    End Site
                    {
                      OFFSET 0 0 0
                    }
                  }
                }
              }
            }
          }
        }
        JOINT LeftShoulder
        {
          OFFSET 3.65916 9.38468 -0.509514
          CHANNELS 3 Zrotation Xrotation Yrotation
          JOINT LeftArm
          {
            OFFSET 0 12.3089 0
            CHANNELS 3 Zrotation Xrotation Yrotation
            JOINT LeftArmRoll
            {
              OFFSET 0 6.21375 0
              CHANNELS 3 Zrotation Xrotation Yrotation
              JOINT LeftForeArm
              {
                OFFSET 0 18.0985 0
                CHANNELS 3 Zrotation Xrotation Yrotation
                JOINT LeftForeArmRoll
                {
                  OFFSET 0 6.9728 0
                  CHANNELS 3 Zrotation Xrotation Yrotation
                  JOINT LeftHand
                  {
                    OFFSET 0 13.9929 0
                    CHANNELS 3 Zrotation Xrotation Yrotation
                    End Site
                    {
                      OFFSET 0 0 0
                    }
                  }
                }
              }
            }
          }
        }
      }
    }
  }
  JOINT RightUpLeg
  {
    OFFSET -5.53515 -1.015 -0.851454
    CHANNELS 3 Zrotation Xrotation Yrotation
    JOINT RightUpLegRoll
    {
      OFFSET 0 16.4075 0
      CHANNELS 3 Zrotation Xrotation Yrotation
      JOINT RightLeg
      {
        OFFSET 0 -20.3181 0
        CHANNELS 3 Zrotation Xrotation Yrotation
        JOINT RightLegRoll
        {
          OFFSET 0 20.3846 0
          CHANNELS 3 Zrotation Xrotation Yrotation
          JOINT RightFoot
          {
            OFFSET 0 16.9668 0
            CHANNELS 3 Zrotation Xrotation Yrotation
            JOINT RightToeBase
            {
              OFFSET 0 14.1834 0
              CHANNELS 3 Zrotation Xrotation Yrotation
              End Site
              {
                OFFSET 0.0060118 6.86889 -0.791746
              }
            }
          }
        }
      }
    }
  }
  JOINT LeftUpLeg
  {
    OFFSET 5.53515 -1.015 -0.851454
    CHANNELS 3 Zrotation Xrotation Yrotation
    JOINT LeftUpLegRoll
    {
      OFFSET 0 16.4076 0
      CHANNELS 3 Zrotation Xrotation Yrotation
      JOINT LeftLeg
      {
        OFFSET 0 20.3181 0
        CHANNELS 3 Zrotation Xrotation Yrotation
        JOINT LeftLegRoll
        {
          OFFSET 0 20.5731 0
          CHANNELS 3 Zrotation Xrotation Yrotation
          JOINT LeftFoot
          {
            OFFSET 0 16.7783 0
            CHANNELS 3 Zrotation Xrotation Yrotation
            JOINT LeftToeBase
            {
              OFFSET 0 14.1834 0
              CHANNELS 3 Zrotation Xrotation Yrotation
              End Site
              {
                OFFSET -0.0269423 6.86889 -0.791746
              }
            }
          }
        }
      }
    }
  }
}
MOTION
Frames: 9
Frame Time: 0.00208333
48.8086 61.6603 3.96741 -5.63814 41.6479 0.396586 0.713968 0.711227 0.0729996 1.43994 5.42378 0.0386866 1.44227 7.06856 0.0143627 -0.254397 27.7147 -2.86843 2.07355 3.97493 -2.89492 51.7589 -2.70597 -0.942702 136.661 33.5378 -40.4455 -5.70828e-006 1.87033e-006 7.48474e-006 25.4796 66.0382 -20.4239 -5.74195e-006 -1.46596e-006 -3 8.02887 -4.9514 0.697698 -66.0994 -1.61823 1.6872 -112.78 33.2664 29.4366 2.38542e-014 3.18055e-015 -0 -23.0579 70.1528 20.4679 7.53474e-006 5.73464e-006 2.99999 -8.03009 -4.95141 -0.697649 -33.8311 73.0939 -144.274 180 7.01617e-015 179.291 168.326 79.2723 -171.009 5.9089e-006 -6.36957e-006 1.79362 -44.5957 79.2994 42.5887 8.12847 25.2494 -3.48328 0.426726 73.8797 -172.936 4.54188e-006 -4.6773e-006 -0.762643 94.277 -85.4478 91.1253 3.18684e-006 6.47106e-006 -3.14279 38.5106 79.9567 -41.4499 -8.11633 28.1932 -0.376114 
48.8058 61.6123 3.93984 -5.61802 41.6049 0.379466 0.712843 0.712537 0.0730699 1.43686 5.42606 0.0383293 1.4392 7.07085 0.0140675 -0.285848 27.7041 -2.86329 2.06125 3.96432 -2.90419 51.7251 -2.7001 -0.935092 136.651 33.5097 -40.5167 -5.70828e-006 1.87033e-006 7.48474e-006 25.5562 66.1474 -20.5224 -5.74195e-006 -1.46596e-006 -3 8.02887 -4.9514 0.697698 -66.1497 -1.61107 1.68831 -112.72 33.2552 29.4715 9.54166e-015 -6.36111e-015 -9.54166e-015 -23.0622 70.2281 20.5084 7.53474e-006 5.73464e-006 2.99999 -8.03009 -4.95141 -0.697649 -33.7497 73.0612 -144.342 180 7.01617e-015 179.29 168.295 79.362 -170.963 5.9089e-006 -6.36957e-006 1.79719 -44.6085 79.3032 42.6047 8.12847 25.2493 -3.48327 0.490982 73.8282 -173 4.54188e-006 -4.6773e-006 -0.763172 95.0744 -85.43 91.9097 3.18684e-006 6.47106e-006 -3.14455 38.3272 79.9117 -41.2567 -8.11599 28.2028 -0.387392 
48.8047 61.5387 3.96254 -5.59682 41.5608 0.361573 0.711699 0.713892 0.0731175 1.43372 5.42843 0.0378906 1.43606 7.07322 0.0136921 -0.31868 27.6937 -2.85807 2.04999 3.95341 -2.91391 51.6895 -2.69397 -0.927115 136.643 33.4808 -40.5895 -5.70828e-006 1.87033e-006 7.48474e-006 25.634 66.2573 -20.6223 -5.74195e-006 -1.46596e-006 -3 8.02887 -4.9514 0.697698 -66.2027 -1.60316 1.68929 -112.656 33.2451 29.5053 -4.77083e-015 -3.18055e-015 -3.18055e-015 -23.0638 70.3008 20.5461 7.53474e-006 5.73464e-006 2.99999 -8.03009 -4.95141 -0.697649 -33.6719 73.0297 -144.407 180 7.01617e-015 179.289 168.268 79.4513 -170.921 5.9089e-006 -6.36957e-006 1.8008 -44.621 79.3073 42.621 8.12846 25.2493 -3.48325 0.556505 73.7769 -173.065 4.54188e-006 -4.6773e-006 -0.763669 95.8542 -85.4114 92.6766 3.18684e-006 6.47106e-006 -3.1461 38.1311 79.863 -41.05 -8.11556 28.2135 -0.400136 
48.802 61.493 3.91964 -5.57473 41.5159 0.343129 0.710555 0.715277 0.0731543 1.43057 5.43086 0.0374152 1.4329 7.07565 0.0132803 -0.353327 27.6829 -2.85232 2.0406 3.94292 -2.9238 51.6521 -2.68786 -0.918976 136.636 33.4512 -40.6632 -5.70828e-006 1.87033e-006 7.48474e-006 25.7126 66.3675 -20.7232 -5.74195e-006 -1.46596e-006 -3 8.02887 -4.9514 0.697698 -66.2577 -1.59463 1.69014 -112.591 33.2362 29.5381 1.43125e-014 -6.36111e-015 -0 -23.0632 70.3708 20.581 7.53474e-006 5.73464e-006 2.99999 -8.03009 -4.95141 -0.697649 -33.5959 72.9994 -144.47 180 7.01617e-015 179.287 168.242 79.5404 -170.88 5.9089e-006 -6.36957e-006 1.80441 -44.6321 79.3113 42.6365 8.12846 25.2492 -3.48324 0.622692 73.7258 -173.131 4.54188e-006 -4.6773e-006 -0.764149 96.6203 -85.3921 93.4297 3.18684e-006 6.47106e-006 -3.1475 37.9269 79.8116 -40.8347 -8.11507 28.225 -0.413873 
48.8016 61.4644 3.84024 -5.55198 41.4701 0.324354 0.709428 0.716682 0.0731923 1.42745 5.43334 0.036948 1.42978 7.07813 0.0128761 -0.39022 27.6714 -2.84562 2.03389 3.93357 -2.9336 51.613 -2.68204 -0.91088 136.631 33.4209 -40.7371 -5.70828e-006 1.87033e-006 7.48474e-006 25.7914 66.4777 -20.8246 -5.74195e-006 -1.46596e-006 -3 8.02887 -4.9514 0.697698 -66.314 -1.58561 1.69086 -112.524 33.2284 29.57 9.54166e-015 -6.36111e-015 -0 -23.0606 70.4379 20.6131 7.53474e-006 5.73464e-006 2.99999 -8.03009 -4.95141 -0.697649 -33.5196 72.9702 -144.534 180 7.01616e-015 179.286 168.219 79.629 -170.84 5.9089e-006 -6.36957e-006 1.808 -44.6409 79.315 42.6502 8.12845 25.2491 -3.48323 0.688928 73.6749 -173.196 4.54188e-006 -4.6773e-006 -0.764628 97.3771 -85.3721 94.1738 3.18684e-006 6.47106e-006 -3.14879 37.7193 79.7587 -40.6158 -8.11453 28.2369 -0.428128 
48.7987 61.4007 3.82764 -5.52877 41.4236 0.30547 0.708337 0.718092 0.0732438 1.42442 5.43585 0.0365339 1.42675 7.08064 0.0125232 -0.429794 27.6587 -2.83753 2.0307 3.92609 -2.94302 51.5721 -2.67681 -0.903031 136.626 33.3901 -40.8106 -5.70828e-006 1.87033e-006 7.48474e-006 25.8701 66.5876 -20.926 -5.74195e-006 -1.46596e-006 -3 8.02887 -4.9514 0.697698 -66.3707 -1.57625 1.69143 -112.456 33.2218 29.6012 6.36111e-015 -6.36111e-015 9.54166e-015 -23.056 70.502 20.6423 7.53474e-006 5.73464e-006 2.99999 -8.03009 -4.95141 -0.697649 -33.4414 72.9422 -144.6 180 7.01616e-015 179.285 168.195 79.7172 -170.801 5.9089e-006 -6.36957e-006 1.81154 -44.6466 79.3181 42.661 8.12845 25.2491 -3.48323 0.754643 73.6244 -173.262 4.54188e-006 -4.6773e-006 -0.765123 98.1286 -85.3514 94.9127 3.18684e-006 6.47106e-006 -3.15002 37.5128 79.7053 -40.3979 -8.11396 28.2488 -0.442429 
48.7999 61.3643 3.7651 -5.50531 41.3764 0.286696 0.707299 0.719495 0.0733206 1.42153 5.43838 0.0362177 1.42385 7.08317 0.0122655 -0.472479 27.6446 -2.82762 2.03184 3.9212 -2.95179 51.5294 -2.67245 -0.895635 136.624 33.3587 -40.8832 -5.70828e-006 1.87033e-006 7.48474e-006 25.9482 66.6966 -21.0269 -5.74195e-006 -1.46596e-006 -3 8.02887 -4.9514 0.697698 -66.427 -1.56668 1.69186 -112.388 33.2166 29.6317 7.95139e-015 -1.90833e-014 -3.18055e-015 -23.0499 70.5628 20.6686 7.53474e-006 5.73464e-006 2.99999 -8.03009 -4.95141 -0.697649 -33.3591 72.9152 -144.67 180 7.01616e-015 179.283 168.172 79.8048 -170.762 5.9089e-006 -6.36957e-006 1.815 -44.6481 79.3204 42.6678 8.12845 25.2491 -3.48322 0.819242 73.5742 -173.327 4.54188e-006 -4.6773e-006 -0.765649 98.8789 -85.3301 95.6505 3.18684e-006 6.47106e-006 -3.15125 37.3117 79.6526 -40.1856 -8.11339 28.2603 -0.4563 
48.7971 61.3111 3.73773 -5.48182 41.3286 0.268252 0.706334 0.72088 0.0734348 1.41883 5.4409 0.0360443 1.42115 7.08569 0.012147 -0.518706 27.6287 -2.81546 2.03815 3.91964 -2.95962 51.4851 -2.66924 -0.888896 136.623 33.327 -40.9542 -5.70828e-006 1.87033e-006 7.48474e-006 26.0251 66.8045 -21.1268 -5.74195e-006 -1.46596e-006 -3 8.02887 -4.9514 0.697698 -66.4822 -1.55704 1.69215 -112.321 33.2126 29.6617 -1.59028e-015 6.36111e-015 -3.18055e-015 -23.0424 70.6203 20.6919 7.53474e-006 5.73464e-006 2.99999 -8.03009 -4.95141 -0.697649 -33.2711 72.8892 -144.745 180 7.01616e-015 179.282 168.146 79.8916 -170.721 5.9089e-006 -6.36957e-006 1.81835 -44.6446 79.3217 42.6695 8.12845 25.2491 -3.48322 0.882109 73.5245 -173.391 4.54188e-006 -4.6773e-006 -0.766222 99.6318 -85.3081 96.3911 3.18684e-006 6.47106e-006 -3.15251 37.1199 79.6017 -39.9832 -8.11283 28.2711 -0.469267 
48.7971 61.232 3.77428 -5.45849 41.2802 0.250354 0.705458 0.722233 0.0735986 1.41637 5.4434 0.0360586 1.41869 7.08819 0.0122114 -0.568905 27.6105 -2.80061 2.05045 3.92211 -2.96625 51.439 -2.66745 -0.883019 136.624 33.2949 -41.0229 -5.70828e-006 1.87033e-006 7.48474e-006 26.1004 66.9108 -21.2252 -5.74195e-006 -1.46596e-006 -3 8.02887 -4.9514 0.697698 -66.5355 -1.54745 1.69228 -112.256 33.2101 29.6913 4.77083e-015 0 -6.36111e-015 -23.0337 70.6743 20.7122 7.53474e-006 5.73464e-006 2.99999 -8.03009 -4.95141 -0.697649 -33.1753 72.8643 -144.827 180 7.01616e-015 179.281 168.118 79.9777 -170.68 5.9089e-006 -6.36957e-006 1.82157 -44.6351 79.3216 42.665 8.12845 25.2491 -3.48323 0.942703 73.4753 -173.454 4.54188e-006 -4.6773e-006 -0.766858 100.391 -85.2854 97.1387 3.18684e-006 6.47106e-006 -3.15386 36.9416 79.5538 -39.7948 -8.11231 28.2808 -0.480853 
